<svg width="892" height="291" viewBox="0 0 892 291" fill="none" xmlns="http://www.w3.org/2000/svg">
<circle cx="445.435" cy="20.9532" r="2.92857" transform="rotate(-10.5343 445.435 20.9532)" fill="#181818"/>
<path d="M449.771 16.7266L445.5 3.91406L441.229 16.7266L428.417 20.9974L441.229 25.2682L445.5 38.0807L449.771 25.2682L462.584 20.9974L449.771 16.7266ZM445.5 23.9016C443.963 23.9016 442.596 22.7057 442.596 20.9974C442.596 19.4599 443.792 18.0932 445.5 18.0932C447.038 18.0932 448.404 19.2891 448.404 20.9974C448.404 22.5349 447.038 23.9016 445.5 23.9016Z" fill="#969696"/>
<g clip-path="url(#clip0_2849_55448)">
<circle cx="863.647" cy="262.468" r="2.92857" transform="rotate(-38.5343 863.647 262.468)" fill="#181818"/>
<path d="M865.491 256.7L855.705 247.392L857.949 260.71L848.641 270.496L861.959 268.252L871.745 277.559L869.501 264.242L878.809 254.456L865.491 256.7ZM865.088 265.04C863.731 265.762 861.963 265.347 861.161 263.839C860.439 262.482 860.853 260.713 862.361 259.911C863.719 259.19 865.487 259.604 866.289 261.112C867.011 262.47 866.446 264.318 865.088 265.04Z" fill="#969696"/>
</g>
<g clip-path="url(#clip1_2849_55448)">
<circle cx="28.176" cy="260.51" r="2.92857" transform="rotate(-68.5343 28.176 260.51)" fill="#181818"/>
<path d="M26.8896 254.592L13.7608 251.425L22.3632 261.836L19.1955 274.965L29.607 266.362L42.7358 269.53L34.1333 259.119L37.3011 245.99L26.8896 254.592ZM30.7112 262.016C29.8964 263.32 28.1581 263.846 26.7093 262.94C25.4054 262.126 24.8801 260.387 25.7854 258.938C26.6002 257.635 28.3385 257.109 29.7873 258.015C31.0911 258.829 31.5259 260.713 30.7112 262.016Z" fill="#969696"/>
</g>
<defs>
<clipPath id="clip0_2849_55448">
<rect width="41" height="41" fill="white" transform="translate(836 254) rotate(-28)"/>
</clipPath>
<clipPath id="clip1_2849_55448">
<rect width="41" height="41" fill="white" transform="translate(0 267) rotate(-58)"/>
</clipPath>
</defs>
</svg>
