<svg width="24" height="24" viewBox="0 0 24 24" fill="none" xmlns="http://www.w3.org/2000/svg">
<g clip-path="url(#clip0_3033_60160)">
<path d="M20.3171 4.36995C18.7874 3.66809 17.1471 3.15096 15.4319 2.85476C15.4007 2.84904 15.3695 2.86334 15.3534 2.89188C15.1424 3.26712 14.9088 3.75659 14.7451 4.14134C12.9005 3.86515 11.0652 3.86515 9.25836 4.14134C9.09468 3.74806 8.85252 3.26712 8.6406 2.89188C8.62452 2.86427 8.5933 2.84998 8.56208 2.85476C6.84796 3.14998 5.20761 3.6671 3.67696 4.36995C3.66369 4.37566 3.65235 4.38518 3.6448 4.39756C0.533426 9.04591 -0.318949 13.58 0.0991759 18.0579C0.101051 18.0798 0.113379 18.1008 0.130395 18.1141C2.18319 19.6216 4.17172 20.5368 6.12327 21.1435C6.15449 21.153 6.18758 21.1416 6.20746 21.1159C6.66908 20.4854 7.0806 19.8207 7.43343 19.1216C7.45424 19.0807 7.43436 19.0322 7.3918 19.0159C6.73907 18.7684 6.11755 18.4664 5.51966 18.1236C5.47236 18.096 5.46857 18.0284 5.51211 17.996C5.63793 17.9017 5.76379 17.8036 5.88393 17.7046C5.90568 17.6865 5.93596 17.6827 5.9615 17.6941C9.88925 19.4874 14.1415 19.4874 18.0229 17.6941C18.0485 17.6817 18.0787 17.6855 18.1014 17.7036C18.2216 17.8026 18.3474 17.9017 18.4742 17.9959C18.5177 18.0283 18.5148 18.096 18.4676 18.1236C17.8697 18.4731 17.2482 18.7683 16.5945 19.015C16.5519 19.0311 16.533 19.0807 16.5538 19.1216C16.9143 19.8197 17.3258 20.4844 17.7789 21.1149C17.7978 21.1415 17.8318 21.153 17.8631 21.1434C19.8241 20.5368 21.8126 19.6216 23.8654 18.114C23.8834 18.1007 23.8948 18.0807 23.8966 18.0588C24.3971 12.8819 23.0585 8.38493 20.3482 4.39845C20.3416 4.38518 20.3303 4.37566 20.3171 4.36995ZM8.02007 15.3313C6.83755 15.3313 5.86316 14.2457 5.86316 12.9124C5.86316 11.5791 6.81861 10.4935 8.02007 10.4935C9.23089 10.4935 10.1959 11.5886 10.1769 12.9124C10.1769 14.2457 9.22143 15.3313 8.02007 15.3313ZM15.9948 15.3313C14.8123 15.3313 13.8379 14.2457 13.8379 12.9124C13.8379 11.5791 14.7934 10.4935 15.9948 10.4935C17.2056 10.4935 18.1706 11.5886 18.1517 12.9124C18.1517 14.2457 17.2057 15.3313 15.9948 15.3313Z" fill="white"/>
</g>
<defs>
<clipPath id="clip0_3033_60160">
<rect width="24" height="24" fill="white"/>
</clipPath>
</defs>
</svg>
