<svg width="24" height="24" viewBox="0 0 24 24" fill="none" xmlns="http://www.w3.org/2000/svg">
<path fill-rule="evenodd" clip-rule="evenodd" d="M24 12C24 18.6274 18.6274 24 12 24C5.37258 24 0 18.6274 0 12C0 5.37258 5.37258 0 12 0C18.6274 0 24 5.37258 24 12ZM12.4299 8.85856C11.2627 9.34403 8.93001 10.3488 5.43177 11.873C4.86371 12.0989 4.56614 12.3198 4.53905 12.5359C4.49326 12.9011 4.95059 13.0449 5.57335 13.2408C5.65806 13.2674 5.74583 13.295 5.83582 13.3242C6.44851 13.5234 7.2727 13.7564 7.70117 13.7657C8.08982 13.7741 8.52361 13.6138 9.00252 13.285C12.271 11.0786 13.9583 9.96344 14.0642 9.9394C14.1389 9.92244 14.2425 9.90111 14.3126 9.96348C14.3828 10.0258 14.3759 10.144 14.3685 10.1756C14.3232 10.3688 12.528 12.0377 11.599 12.9014C11.3094 13.1707 11.104 13.3617 11.062 13.4053C10.9679 13.503 10.872 13.5954 10.7799 13.6842C10.2106 14.233 9.78379 14.6445 10.8035 15.3164C11.2935 15.6393 11.6856 15.9064 12.0768 16.1728C12.504 16.4637 12.9302 16.7539 13.4815 17.1153C13.622 17.2074 13.7561 17.303 13.8868 17.3962C14.3839 17.7506 14.8306 18.069 15.3825 18.0183C15.7031 17.9888 16.0343 17.6872 16.2026 16.788C16.6001 14.6628 17.3815 10.0581 17.5621 8.16061C17.5779 7.99436 17.558 7.7816 17.542 7.68821C17.526 7.59481 17.4926 7.46174 17.3712 7.36323C17.2275 7.24657 17.0055 7.22197 16.9062 7.22372C16.4549 7.23167 15.7624 7.47245 12.4299 8.85856Z" fill="white"/>
</svg>
