<svg width="24" height="24" viewBox="0 0 24 24" fill="none" xmlns="http://www.w3.org/2000/svg">
<path d="M12 3V21C8.5 21 5.89925 16.4195 5.89925 16.4195H3C2.44771 16.4195 2 15.9718 2 15.4195V8.5054C2 7.9531 2.44771 7.5054 3 7.5054H5.89925C5.89925 7.5054 8.5 3 12 3Z" fill="white"/>
<path d="M16.4995 6.94058C16.1906 6.66469 15.7165 6.69149 15.4406 7.00045C15.1647 7.30941 15.1915 7.78353 15.5005 8.05942L16.4995 6.94058ZM16.8421 8.4294L17.4477 7.98705L17.4477 7.98704L16.8421 8.4294ZM16.8609 15.5447L17.4689 15.9838L17.4689 15.9837L16.8609 15.5447ZM15.5005 15.9406C15.1915 16.2165 15.1647 16.6906 15.4406 16.9995C15.7165 17.3085 16.1906 17.3353 16.4995 17.0594L15.5005 15.9406ZM15.5005 8.05942C15.7725 8.30239 16.0194 8.57472 16.2364 8.87176L17.4477 7.98704C17.1687 7.60498 16.8507 7.25411 16.4995 6.94058L15.5005 8.05942ZM16.2364 8.87175C16.8723 9.74238 17.25 10.8241 17.25 12H18.75C18.75 10.4982 18.2664 9.10802 17.4477 7.98705L16.2364 8.87175ZM17.25 12C17.25 13.1657 16.8788 14.2388 16.2529 15.1056L17.4689 15.9837C18.2747 14.8679 18.75 13.4888 18.75 12H17.25ZM16.2529 15.1055C16.032 15.4114 15.7795 15.6914 15.5005 15.9406L16.4995 17.0594C16.8596 16.7379 17.1848 16.3771 17.4689 15.9838L16.2529 15.1055Z" fill="white"/>
<path d="M16.7338 19.9476C16.3781 20.1599 16.2619 20.6203 16.4742 20.976C16.6865 21.3317 17.1469 21.4479 17.5026 21.2356L16.7338 19.9476ZM17.6483 2.85046C17.2961 2.63255 16.8339 2.74145 16.6159 3.09371C16.398 3.44597 16.5069 3.90818 16.8592 4.1261L17.6483 2.85046ZM17.5026 21.2356C20.6437 19.3607 22.7502 15.9261 22.7502 11.9988H21.2502C21.2502 15.3764 19.4403 18.3321 16.7338 19.9476L17.5026 21.2356ZM22.7502 11.9988C22.7502 8.13247 20.7086 4.74364 17.6483 2.85046L16.8592 4.1261C19.4961 5.75736 21.2502 8.67353 21.2502 11.9988H22.7502Z" fill="white"/>
</svg>
