<svg width="16" height="16" viewBox="0 0 16 16" fill="none" xmlns="http://www.w3.org/2000/svg">
<g clip-path="url(#clip0_2961_48559)">
<path d="M15.9491 7.0777C15.9151 6.99636 15.8664 6.92236 15.8044 6.86036L13.8051 4.86102C13.5444 4.60102 13.1231 4.60102 12.8624 4.86102C12.6018 5.12167 12.6018 5.54367 12.8624 5.80367L13.7244 6.66567H10.0004C9.63174 6.66567 9.33374 6.96433 9.33374 7.33233C9.33374 7.70033 9.63174 7.99898 10.0004 7.99898H13.7244L12.8624 8.86098C12.6017 9.12164 12.6017 9.54364 12.8624 9.80364C12.9924 9.9343 13.1631 9.99898 13.3337 9.99898C13.5044 9.99898 13.6751 9.93433 13.8051 9.80364L15.8044 7.8043C15.8664 7.74295 15.9151 7.66895 15.9491 7.58695C16.0164 7.42436 16.0164 7.24036 15.9491 7.0777Z" fill="#969696"/>
<path d="M11.3339 9.33334C10.9653 9.33334 10.6673 9.632 10.6673 10V13.3333H8.00061V2.66666C8.00061 2.37266 7.80727 2.11266 7.52527 2.028L5.20992 1.33334H10.6673V4.66669C10.6673 5.03469 10.9653 5.33334 11.3339 5.33334C11.7026 5.33334 12.0006 5.03469 12.0006 4.66669V0.666687C12.0006 0.298656 11.7026 0 11.3339 0H0.667267C0.643267 0 0.621923 0.01 0.59861 0.0126563C0.567267 0.016 0.53861 0.0213125 0.50861 0.0286562C0.43861 0.0466563 0.375267 0.074 0.315954 0.111313C0.301298 0.120656 0.283298 0.121312 0.269298 0.131969C0.263923 0.136 0.261923 0.143344 0.256579 0.147344C0.183923 0.204656 0.123267 0.274656 0.0792666 0.358C0.0699228 0.376 0.0679229 0.395344 0.0606104 0.414C0.0392666 0.464656 0.0159541 0.514 0.0079541 0.57C0.00461035 0.59 0.0106104 0.608656 0.0099541 0.628C0.00929785 0.641344 0.000610352 0.653344 0.000610352 0.666656V14C0.000610352 14.318 0.225267 14.5913 0.53661 14.6533L7.20327 15.9867C7.24661 15.996 7.29061 16 7.33392 16C7.48658 16 7.63658 15.9474 7.75658 15.8487C7.91058 15.722 8.00058 15.5333 8.00058 15.3333V14.6667H11.3339C11.7026 14.6667 12.0006 14.368 12.0006 14V10C12.0006 9.632 11.7026 9.33334 11.3339 9.33334Z" fill="#969696"/>
</g>
<defs>
<clipPath id="clip0_2961_48559">
<rect width="16" height="16" fill="white"/>
</clipPath>
</defs>
</svg>
