<svg width="90" height="48" viewBox="0 0 90 48" fill="none" xmlns="http://www.w3.org/2000/svg">
<g clip-path="url(#clip0_2538_61915)">
<rect width="90" height="48" rx="24" fill="#74182A"/>
<g clip-path="url(#clip1_2538_61915)">
<path d="M57.3426 17.2681C57.5831 25.1439 72.8409 19.57 77.4665 15.8087C71.5721 37.9677 51.5124 35.6585 49.9538 37.0114C47.1824 43.2287 48.539 49.5226 53.4303 56.6532C43.5885 54.3343 33.5655 44.4569 32.5812 30.89C32.1282 24.6496 17.5932 27.8982 12.9372 32.6382C15.5691 21.3654 21.565 18.1668 27.2255 14.8421C33.7773 10.994 39.5522 13.4623 41.1899 9.68116C43.4593 4.44159 40.6962 -3.84901 36.5825 -8.1592C48.7442 -6.36212 57.06 8.01598 57.3426 17.268L57.3426 17.2681ZM48.8214 27.1393C50.8091 23.6964 48.3055 19.3664 44.3256 19.3638C40.3458 19.3612 37.8476 23.6884 39.8397 27.1337C41.8318 30.5791 46.8337 30.5823 48.8214 27.1394L48.8214 27.1393Z" fill="#101010"/>
</g>
</g>
<defs>
<clipPath id="clip0_2538_61915">
<rect width="90" height="48" fill="white"/>
</clipPath>
<clipPath id="clip1_2538_61915">
<rect width="50" height="50" fill="white" transform="translate(36 -10) rotate(30)"/>
</clipPath>
</defs>
</svg>
