<svg width="44" height="44" viewBox="0 0 44 44" fill="none" xmlns="http://www.w3.org/2000/svg">
<g filter="url(#filter0_b_1_95)">
<path d="M44 44H0V7.30714V0H12.94C13.73 0 14.4459 0.464945 14.7671 1.18659L15.7429 3.37841C16.0642 4.10006 16.7801 4.565 17.57 4.565H44V44Z" fill="white" fill-opacity="0.03"/>
<path d="M0.5 43.5H43.5V5.065H17.57C16.5826 5.065 15.6877 4.48382 15.2861 3.58176L14.3104 1.38994C14.0694 0.848708 13.5325 0.5 12.94 0.5H0.5V7.30714V43.5Z" stroke="white" stroke-opacity="0.08"/>
</g>
<path d="M22 13L24.6942 21.2918H33.4127L26.3593 26.4164L29.0534 34.7082L22 29.5836L14.9466 34.7082L17.6407 26.4164L10.5873 21.2918H19.3058L22 13Z" fill="white"/>
<defs>
<filter id="filter0_b_1_95" x="-108" y="-108" width="260" height="260" filterUnits="userSpaceOnUse" color-interpolation-filters="sRGB">
<feFlood flood-opacity="0" result="BackgroundImageFix"/>
<feGaussianBlur in="BackgroundImage" stdDeviation="54"/>
<feComposite in2="SourceAlpha" operator="in" result="effect1_backgroundBlur_1_95"/>
<feBlend mode="normal" in="SourceGraphic" in2="effect1_backgroundBlur_1_95" result="shape"/>
</filter>
</defs>
</svg>
