<svg width="44" height="44" viewBox="0 0 44 44" fill="none" xmlns="http://www.w3.org/2000/svg">
<g filter="url(#filter0_b_2948_48551)">
<path d="M44 44H0V7.30714V0H12.94C13.73 0 14.4459 0.464945 14.7671 1.18659L15.7429 3.37841C16.0642 4.10006 16.7801 4.565 17.57 4.565H44V44Z" fill="white" fill-opacity="0.03"/>
<path d="M0.5 7.30714V43.5H43.5V5.065H17.57C16.5826 5.065 15.6877 4.48382 15.2861 3.58176L14.3104 1.38994C14.0694 0.848708 13.5325 0.5 12.94 0.5H0.5V7.30714Z" stroke="white" stroke-opacity="0.08"/>
</g>
<path d="M30.25 16H29.5V15.25C29.5 15.0511 29.421 14.8603 29.2803 14.7197C29.1397 14.579 28.9489 14.5 28.75 14.5C28.5511 14.5 28.3603 14.579 28.2197 14.7197C28.079 14.8603 28 15.0511 28 15.25V16H25V15.25C25 15.0511 24.921 14.8603 24.7803 14.7197C24.6397 14.579 24.4489 14.5 24.25 14.5C24.0511 14.5 23.8603 14.579 23.7197 14.7197C23.579 14.8603 23.5 15.0511 23.5 15.25V16H20.5V15.25C20.5 15.0511 20.421 14.8603 20.2803 14.7197C20.1397 14.579 19.9489 14.5 19.75 14.5C19.5511 14.5 19.3603 14.579 19.2197 14.7197C19.079 14.8603 19 15.0511 19 15.25V16H16V15.25C16 15.0511 15.921 14.8603 15.7803 14.7197C15.6397 14.579 15.4489 14.5 15.25 14.5C15.0511 14.5 14.8603 14.579 14.7197 14.7197C14.579 14.8603 14.5 15.0511 14.5 15.25V16H13.75C13.1533 16 12.581 16.2371 12.159 16.659C11.7371 17.081 11.5 17.6533 11.5 18.25V20.5H32.5V18.25C32.5 17.6533 32.2629 17.081 31.841 16.659C31.419 16.2371 30.8467 16 30.25 16V16Z" fill="white"/>
<path d="M11.5 33.25C11.5 33.8467 11.7371 34.419 12.159 34.841C12.581 35.2629 13.1533 35.5 13.75 35.5H30.25C30.8467 35.5 31.419 35.2629 31.841 34.841C32.2629 34.419 32.5 33.8467 32.5 33.25V22H11.5V33.25ZM26.5 25.75H28C28.1989 25.75 28.3897 25.829 28.5303 25.9697C28.671 26.1103 28.75 26.3011 28.75 26.5C28.75 26.6989 28.671 26.8897 28.5303 27.0303C28.3897 27.171 28.1989 27.25 28 27.25H26.5C26.3011 27.25 26.1103 27.171 25.9697 27.0303C25.829 26.8897 25.75 26.6989 25.75 26.5C25.75 26.3011 25.829 26.1103 25.9697 25.9697C26.1103 25.829 26.3011 25.75 26.5 25.75ZM26.5 29.5H28C28.1989 29.5 28.3897 29.579 28.5303 29.7197C28.671 29.8603 28.75 30.0511 28.75 30.25C28.75 30.4489 28.671 30.6397 28.5303 30.7803C28.3897 30.921 28.1989 31 28 31H26.5C26.3011 31 26.1103 30.921 25.9697 30.7803C25.829 30.6397 25.75 30.4489 25.75 30.25C25.75 30.0511 25.829 29.8603 25.9697 29.7197C26.1103 29.579 26.3011 29.5 26.5 29.5ZM21.25 25.75H22.75C22.9489 25.75 23.1397 25.829 23.2803 25.9697C23.421 26.1103 23.5 26.3011 23.5 26.5C23.5 26.6989 23.421 26.8897 23.2803 27.0303C23.1397 27.171 22.9489 27.25 22.75 27.25H21.25C21.0511 27.25 20.8603 27.171 20.7197 27.0303C20.579 26.8897 20.5 26.6989 20.5 26.5C20.5 26.3011 20.579 26.1103 20.7197 25.9697C20.8603 25.829 21.0511 25.75 21.25 25.75V25.75ZM21.25 29.5H22.75C22.9489 29.5 23.1397 29.579 23.2803 29.7197C23.421 29.8603 23.5 30.0511 23.5 30.25C23.5 30.4489 23.421 30.6397 23.2803 30.7803C23.1397 30.921 22.9489 31 22.75 31H21.25C21.0511 31 20.8603 30.921 20.7197 30.7803C20.579 30.6397 20.5 30.4489 20.5 30.25C20.5 30.0511 20.579 29.8603 20.7197 29.7197C20.8603 29.579 21.0511 29.5 21.25 29.5V29.5ZM16 25.75H17.5C17.6989 25.75 17.8897 25.829 18.0303 25.9697C18.171 26.1103 18.25 26.3011 18.25 26.5C18.25 26.6989 18.171 26.8897 18.0303 27.0303C17.8897 27.171 17.6989 27.25 17.5 27.25H16C15.8011 27.25 15.6103 27.171 15.4697 27.0303C15.329 26.8897 15.25 26.6989 15.25 26.5C15.25 26.3011 15.329 26.1103 15.4697 25.9697C15.6103 25.829 15.8011 25.75 16 25.75ZM16 29.5H17.5C17.6989 29.5 17.8897 29.579 18.0303 29.7197C18.171 29.8603 18.25 30.0511 18.25 30.25C18.25 30.4489 18.171 30.6397 18.0303 30.7803C17.8897 30.921 17.6989 31 17.5 31H16C15.8011 31 15.6103 30.921 15.4697 30.7803C15.329 30.6397 15.25 30.4489 15.25 30.25C15.25 30.0511 15.329 29.8603 15.4697 29.7197C15.6103 29.579 15.8011 29.5 16 29.5Z" fill="white"/>
<defs>
<filter id="filter0_b_2948_48551" x="-108" y="-108" width="260" height="260" filterUnits="userSpaceOnUse" color-interpolation-filters="sRGB">
<feFlood flood-opacity="0" result="BackgroundImageFix"/>
<feGaussianBlur in="BackgroundImage" stdDeviation="54"/>
<feComposite in2="SourceAlpha" operator="in" result="effect1_backgroundBlur_2948_48551"/>
<feBlend mode="normal" in="SourceGraphic" in2="effect1_backgroundBlur_2948_48551" result="shape"/>
</filter>
</defs>
</svg>
