<svg width="160" height="48" viewBox="0 0 160 48" fill="none" xmlns="http://www.w3.org/2000/svg">
<g clip-path="url(#clip0_2538_61902)">
<rect width="160" height="48" rx="24" fill="#74182A"/>
<rect x="2" y="2" width="110" height="44" rx="22" fill="#101010"/>
<circle cx="129.896" cy="29.9292" r="4.71429" transform="rotate(-10.5343 129.896 29.9292)" fill="#101010"/>
<rect x="114" y="2" width="44" height="44" rx="22" fill="#101010"/>
<path d="M142.657 23.6274L148.314 12.3137L137 17.9706L125.686 12.3137L131.343 23.6274L125.686 34.9411L137 29.2843L148.314 34.9411L142.657 23.6274ZM135.077 25.5507C134.058 24.5325 133.945 22.8355 135.077 21.7041C136.095 20.6859 137.792 20.5727 138.923 21.7041C139.942 22.7223 140.055 24.4194 138.923 25.5507C137.905 26.569 136.095 26.569 135.077 25.5507Z" fill="#74182A"/>
</g>
<defs>
<clipPath id="clip0_2538_61902">
<rect width="160" height="48" rx="24" fill="white"/>
</clipPath>
</defs>
</svg>
