<svg width="120" height="120" viewBox="0 0 120 120" fill="none" xmlns="http://www.w3.org/2000/svg">
<path d="M60.001 0C26.918 0 0.000976562 26.915 0.000976562 60C0.000976562 93.0869 26.918 120 60.001 120C93.085 120 119.999 93.0869 119.999 60C119.998 26.915 93.084 0 60.001 0ZM87.6718 50.7553L56.1694 82.2596C55.4837 82.9464 54.2688 82.9464 53.582 82.2596L32.4478 61.1245C32.1045 60.7801 31.9148 60.322 31.9148 59.8298C31.9158 59.3395 32.1054 58.8785 32.4478 58.5322L35.1491 55.8319C35.4924 55.4895 35.9516 55.3018 36.4447 55.3018C36.935 55.3018 37.3951 55.4895 37.7375 55.8319L54.2133 72.3078C54.5781 72.6764 55.1714 72.6764 55.5372 72.3078L82.3822 45.4628C83.0689 44.776 84.2858 44.776 84.9706 45.4628L87.6718 48.1679C88.0152 48.5083 88.2087 48.9714 88.2087 49.4587C88.2087 49.9519 88.0152 50.411 87.6718 50.7553Z" fill="white"/>
</svg>
